<?xml version="1.0" encoding="UTF-8" standalone="no"?>
<!-- Created with Inkscape (http://www.inkscape.org/) -->

<svg
   width="137.96161mm"
   height="38.737522mm"
   viewBox="0 0 137.96161 38.737522"
   version="1.1"
   id="svg5"
   xml:space="preserve"
   inkscape:version="1.2.2 (732a01da63, 2022-12-09)"
   sodipodi:docname="ByteRead.svg"
   xmlns:inkscape="http://www.inkscape.org/namespaces/inkscape"
   xmlns:sodipodi="http://sodipodi.sourceforge.net/DTD/sodipodi-0.dtd"
   xmlns="http://www.w3.org/2000/svg"
   xmlns:svg="http://www.w3.org/2000/svg"><sodipodi:namedview
     id="namedview7"
     pagecolor="#ffffff"
     bordercolor="#666666"
     borderopacity="1.0"
     inkscape:showpageshadow="2"
     inkscape:pageopacity="0.0"
     inkscape:pagecheckerboard="0"
     inkscape:deskcolor="#d1d1d1"
     inkscape:document-units="mm"
     showgrid="false"
     inkscape:zoom="0.93539562"
     inkscape:cx="225.573"
     inkscape:cy="252.29966"
     inkscape:current-layer="layer1" /><defs
     id="defs2" /><g
     inkscape:label="Layer 1"
     inkscape:groupmode="layer"
     id="layer1"
     transform="translate(-28.633532,-95.035765)"><g
       id="g849"
       transform="translate(-2.000102,-72.803714)"><path
         style="fill:#ecda9d;stroke-width:0.264583"
         d="m 83.267884,196.31537 c 0.02572,-1.11597 0.0352,-1.1267 1.020429,-1.15418 0.984033,-0.0275 0.98488,-0.0266 0.08062,0.0812 -0.846963,0.10101 -0.921657,0.1855 -1.020429,1.15418 l -0.106574,1.04519 0.02596,-1.12644 z m -15.903099,-3.04312 c 1.134436,-0.0497 2.920373,-0.0494 3.96875,6.6e-4 1.048375,0.0501 0.120198,0.0908 -2.062615,0.0904 -2.182812,-3.7e-4 -3.040573,-0.0414 -1.906135,-0.0911 z m 86.837385,-6.02083 c 0,-3.24642 0.0893,-5.8474 0.19844,-5.77995 0.10914,0.0674 0.19844,2.66843 0.19844,5.77995 0,3.11153 -0.0893,5.7125 -0.19844,5.77996 -0.10914,0.0674 -0.19844,-2.53353 -0.19844,-5.77996 z m 14.21733,-2.16759 -0.0621,-8.25302 -1.12448,-0.10128 -1.12448,-0.10128 1.13278,-0.0462 c 1.48244,-0.0605 1.39998,-0.60547 1.31456,8.68776 l -0.0741,8.06706 z m -103.397193,0.18322 c 0,-4.29286 0.03639,-6.04904 0.08086,-3.9026 0.04447,2.14643 0.04447,5.65877 0,7.8052 -0.04447,2.14644 -0.08086,0.39026 -0.08086,-3.9026 z m 25.608047,2.06502 -0.06047,-5.74019 -1.256771,-0.0991 -1.256771,-0.0991 1.265073,-0.0477 c 1.616081,-0.0609 1.53837,-0.3927 1.446784,6.17685 l -0.07736,5.54942 z m -20.757128,3.03258 c 0.62231,-0.0559 1.57481,-0.0551 2.116666,0.002 0.541857,0.0568 0.0327,0.10258 -1.131472,0.10162 -1.164166,-9.5e-4 -1.607505,-0.0475 -0.985194,-0.10337 z m 46.461294,-3.24552 c 0,-1.67349 0.043,-2.3581 0.0955,-1.52135 0.0525,0.83674 0.0525,2.20596 0,3.04271 -0.0525,0.83674 -0.0955,0.15213 -0.0955,-1.52136 z m -28.570664,-1.71979 c 5.29e-4,-2.03729 0.04194,-2.83575 0.09229,-1.77436 0.05035,1.06139 0.05001,2.72827 -7.94e-4,3.70417 -0.05072,0.9759 -0.09191,0.10748 -0.0915,-1.92981 z m 6.338054,1.45521 c 0,-1.23693 0.04558,-1.74294 0.101283,-1.12448 0.0557,0.61846 0.0557,1.6305 0,2.24896 -0.05571,0.61846 -0.101283,0.11245 -0.101283,-1.12448 z m 8.99234,0.26458 c 0,-1.0914 0.0467,-1.53789 0.10379,-0.99218 0.0571,0.5457 0.0571,1.43867 0,1.98437 -0.0571,0.5457 -0.10379,0.0992 -0.10379,-0.99219 z m -23.004903,-1.98437 c 5.29e-4,-1.89177 0.0426,-2.63096 0.09365,-1.64264 0.05105,0.98831 0.05067,2.53613 -7.93e-4,3.43958 -0.05156,0.90345 -0.09332,0.0948 -0.09286,-1.79694 z m 2.599925,-0.18323 -0.05689,-3.35822 -1.124479,-0.10128 -1.12448,-0.10128 1.132782,-0.0462 c 1.422509,-0.058 1.417582,-0.0723 1.314199,3.80564 l -0.08423,3.1596 z m 14.052844,1.50614 c 0.0011,-1.01864 0.049,-1.40294 0.106272,-0.85399 0.05728,0.54895 0.05631,1.38239 -0.0021,1.85208 -0.05847,0.4697 -0.105331,0.0206 -0.104156,-0.99809 z m 23.653634,0.4705 c 0.4697,-0.0584 1.30313,-0.0594 1.85208,-0.002 0.54895,0.0573 0.16465,0.1051 -0.85399,0.10627 -1.01865,0.001 -1.46779,-0.0457 -0.99809,-0.10413 z m -50.661809,-0.2681 c 0.691224,-0.0545 1.822318,-0.0545 2.513542,0 0.691224,0.0545 0.125677,0.0991 -1.256771,0.0991 -1.382448,0 -1.947995,-0.0446 -1.256771,-0.0991 z m 49.245329,-3.11281 c 5.3e-4,-1.60073 0.0442,-2.22146 0.0968,-1.3794 0.0527,0.84205 0.0522,2.15174 -0.001,2.91041 -0.0533,0.75867 -0.0964,0.0697 -0.0958,-1.53101 z m -20.543937,0.4705 c 0.469696,-0.0585 1.303133,-0.0594 1.852087,-0.002 0.54894,0.0573 0.16465,0.1051 -0.854,0.10628 -1.018646,0.001 -1.467786,-0.0457 -0.998087,-0.10414 z m -28.701392,-0.26811 c 0.691224,-0.0545 1.822318,-0.0545 2.513542,0 0.691224,0.0545 0.125677,0.0991 -1.256771,0.0991 -1.382448,0 -1.947995,-0.0446 -1.256771,-0.0991 z m 28.575,-2.37951 c 0.545703,-0.0571 1.438672,-0.0571 1.984379,0 0.5457,0.0571 0.0992,0.10379 -0.992191,0.10379 -1.091407,0 -1.537891,-0.0467 -0.992188,-0.10379 z m 67.495049,-2.18851 c 0,-1.23692 0.0456,-1.74294 0.10129,-1.12448 0.0557,0.61847 0.0557,1.6305 0,2.24896 -0.0557,0.61847 -0.10129,0.11245 -0.10129,-1.12448 z m -71.678267,-0.39687 0.01603,-2.11667 h 1.322917 1.322917 l 0.01789,2.05139 0.01789,2.05139 -0.09517,-1.98524 -0.09515,-1.98525 h -1.168794 -1.168797 l -0.09288,2.05052 -0.09288,2.05052 0.01603,-2.11666 z m -24.250621,1.25984 c 0.768863,-0.0536 1.959488,-0.0531 2.645833,0.001 0.686345,0.0543 0.05728,0.0982 -1.397931,0.0975 -1.455209,-6.8e-4 -2.016766,-0.0451 -1.247902,-0.0987 z m 50.520648,0.004 c 0.4697,-0.0585 1.30313,-0.0594 1.85208,-0.002 0.54895,0.0573 0.16465,0.1051 -0.85399,0.10628 -1.01865,10e-4 -1.46779,-0.0457 -0.99809,-0.10414 z m -52.898205,-2.9161 c 1.207458,-0.0491 3.112458,-0.0489 4.233334,6.1e-4 1.120878,0.0495 0.132958,0.0897 -2.195375,0.0893 -2.328334,-3.5e-4 -3.245414,-0.0408 -2.037959,-0.09 z m 50.655145,8.5e-4 c 0.98227,-0.0509 2.58961,-0.0509 3.57188,0 0.98226,0.0509 0.17859,0.0926 -1.78594,0.0926 -1.96453,0 -2.7682,-0.0417 -1.78594,-0.0926 z"
         id="path861" /><path
         style="fill:#cccbcb;stroke-width:0.264583"
         d="m 38.513108,190.1189 c -0.243779,-0.0984 -0.330729,-1.16811 -0.330729,-4.06894 v -3.93549 l 7.739062,0.0549 7.739063,0.0549 0.07369,3.81618 c 0.05553,2.87555 -0.0097,3.86909 -0.264584,4.03085 -0.360167,0.22855 -14.39732,0.27317 -14.956502,0.0475 z"
         id="path859" /><path
         style="fill:#d89ea7;stroke-width:0.264583"
         d="m 40.38309,206.50009 c 3.174923,-0.0422 8.29461,-0.0422 11.377084,1.1e-4 3.082473,0.0423 0.484809,0.0769 -5.772587,0.0768 -6.257396,-6e-5 -8.779419,-0.0347 -5.604497,-0.0769 z m 20.617191,-16.91151 c -0.04965,-10.9578 -0.136837,-14.09651 -0.394465,-14.20047 -0.259043,-0.10452 -0.257244,-0.13798 0.0083,-0.15434 0.5818,-0.0358 0.594013,0.30475 0.521094,14.5312 l -0.0712,13.89062 z m -30.366645,-2.33716 c 3.5e-5,-8.73125 0.0334,-12.26481 0.07414,-7.85236 0.04075,4.41244 0.04072,11.55619 -6.2e-5,15.875 -0.04078,4.3188 -0.07412,0.70861 -0.07408,-8.02264 z m 7.400333,2.69924 c -0.07249,-0.18891 -0.09487,-2.00461 -0.04973,-4.03489 l 0.08207,-3.69143 0.05804,3.88056 c 0.04205,2.81167 0.149134,3.91731 0.388765,4.014 0.259043,0.10453 0.257243,0.13798 -0.0083,0.15434 -0.186468,0.0115 -0.398344,-0.13367 -0.470835,-0.32258 z m 15.757886,-3.9436 c -0.07224,-2.13961 -0.03856,-3.79704 0.07485,-3.68318 0.113409,0.11386 0.172517,1.86445 0.131351,3.8902 l -0.07485,3.68318 z M 38.446658,182.0259 c 1.67e-4,-0.10914 3.36382,-0.17352 7.474783,-0.14306 7.520844,0.0557 6.667533,0.14868 -2.513846,0.27386 -2.728682,0.0372 -4.961104,-0.0217 -4.960937,-0.1308 z m 1.190929,-12.29559 c 11.536928,-0.18459 20.770067,-0.18793 20.769937,-0.008 -7.9e-5,0.10914 -5.68538,0.17167 -12.634,0.13896 -6.948619,-0.0327 -10.609791,-0.0918 -8.135937,-0.13143 z m 0.348873,-1.85942 c 3.393338,-0.0419 8.870213,-0.0419 12.170833,1.1e-4 3.30062,0.0419 0.524252,0.0762 -6.169706,0.0762 -6.693958,-5e-5 -9.394465,-0.0344 -6.001127,-0.0763 z"
         id="path857" /><path
         style="fill:#e7b50d;stroke-width:0.264583"
         d="m 83.624566,197.55353 c -0.10914,-0.11211 -0.198437,-0.66025 -0.198437,-1.21808 0,-0.98544 0.02666,-1.01423 0.939181,-1.01423 1.123193,0 2.314006,-0.57047 2.881217,-1.38028 0.641588,-0.916 0.527769,-0.99179 -1.241356,-0.82658 -4.144354,0.387 -5.574909,-1.49418 -5.716035,-7.51658 l -0.09455,-4.0349 h 1.218896 1.218896 v 3.31579 c 0,4.43045 0.4602,5.53038 2.448885,5.8531 0.759587,0.12326 1.06721,0.008 1.875692,-0.70167 l 0.967089,-0.84912 v -3.80905 -3.80905 h 1.322917 1.322917 v 5.6761 c 0,5.91296 -0.04903,6.22997 -1.253003,8.10227 -0.999758,1.55472 -4.868683,3.05836 -5.692309,2.21228 z M 65.169879,185.26705 v -7.9375 l 4.299479,0.006 c 4.937347,0.007 5.933093,0.28107 7.240611,1.99532 1.010357,1.32464 1.089083,3.59895 0.167722,4.84516 -0.727694,0.98425 -0.737587,1.22521 -0.07931,1.93178 1.139312,1.2229 1.00816,3.7654 -0.2745,5.32149 -1.17502,1.4255 -2.640105,1.77544 -7.43327,1.77544 h -3.920728 z m 8.432771,4.99925 c 1.503994,-0.52429 1.849098,-2.19236 0.648893,-3.13644 -0.634746,-0.49929 -0.997119,-0.54914 -3.505729,-0.48223 l -2.79781,0.0746 -0.0811,1.58011 c -0.06474,1.26136 0.01217,1.64832 0.381299,1.91823 0.575852,0.42107 4.189188,0.45192 5.35445,0.0457 z m 0.981741,-6.96805 c 0.53507,-0.73268 0.463566,-1.81609 -0.173299,-2.62573 -0.620038,-0.78825 -5.569937,-1.08758 -6.27788,-0.37964 -0.418764,0.41877 -0.408882,2.92332 0.01323,3.3526 0.579797,0.58964 5.965912,0.29914 6.437949,-0.34723 z m 23.194767,9.41524 c -2.589713,-0.90638 -3.505113,-2.45648 -3.505113,-5.93543 0,-2.26899 -0.221525,-2.83393 -1.11125,-2.83393 -0.906163,0 -0.665726,-2.3243 0.251355,-2.42982 0.72518,-0.0834 0.727858,-0.0914 0.80405,-2.39882 l 0.07645,-2.31511 h 1.180323 1.180324 v 2.22065 c 0,2.59766 -0.06147,2.54185 2.799766,2.54185 h 1.962737 v 1.19063 1.19062 h -1.933808 c -2.747854,0 -2.913009,0.17093 -2.789655,2.88724 0.129357,2.84853 0.904337,3.72735 3.286924,3.72735 h 1.465529 l -0.0806,1.25677 -0.0807,1.25677 -1.05833,0.0638 c -0.582081,0.0351 -1.683687,-0.15506 -2.44801,-0.42257 z m 8.930302,0.0692 c -4.79147,-2.07542 -4.63477,-9.62353 0.23545,-11.34185 2.11612,-0.74661 4.53688,-0.28168 6.04841,1.16167 0.8263,0.78903 0.89097,0.6582 -2.05235,4.15194 -1.45621,1.72853 -2.61276,3.32137 -2.5701,3.53965 0.11287,0.5776 1.6873,0.43129 2.59709,-0.24135 0.96444,-0.71304 1.0554,-0.70203 1.95484,0.23679 0.73356,0.76567 0.74188,0.8049 0.27912,1.31624 -1.32924,1.4688 -4.49409,2.0425 -6.49246,1.17691 z m 1.8427,-6.48718 c 1.77005,-2.31604 1.80073,-2.61599 0.26756,-2.61599 -2.12893,0 -3.82692,2.7103 -2.93053,4.67765 0.3832,0.84103 0.53349,0.72468 2.66297,-2.06166 z m 7.94165,5.78453 c -0.003,-0.61846 -0.0326,-4.20048 -0.0661,-7.96003 l -0.0609,-6.83556 3.96875,0.0931 c 3.47402,0.0815 4.10574,0.16583 5.06764,0.67632 3.66867,1.947 4.39682,7.13415 1.40398,10.00148 -0.9215,0.88285 -0.97046,1.49313 -0.25391,3.16477 0.77729,1.81334 0.72153,1.98438 -0.64686,1.98438 -1.17293,0 -1.17834,-0.004 -2.05052,-1.65365 l -0.87449,-1.65364 -1.67675,-0.0794 c -2.12945,-0.1008 -2.42429,0.13804 -2.42429,1.96385 v 1.42281 h -1.19063 -1.19062 l -0.005,-1.12448 z m 7.51503,-5.32788 c 3.66871,-1.53288 2.25245,-6.49421 -1.92116,-6.73004 -3.2973,-0.18631 -3.20738,-0.27725 -3.20738,3.24393 0,1.65881 0.0723,3.20436 0.16059,3.43454 0.20978,0.54666 3.6964,0.58286 4.96795,0.0516 z m 9.81814,5.95892 c -4.72669,-2.14729 -4.28847,-9.89783 0.64317,-11.37539 2.00767,-0.60151 3.52362,-0.33673 5.37837,0.93939 1.33699,0.91989 1.35502,0.87039 -1.65364,4.54029 -1.45521,1.77503 -2.64583,3.41863 -2.64583,3.65245 0,0.70042 2.01547,0.28682 2.94584,-0.60453 l 0.77013,-0.73783 0.82523,0.82524 c 2.08344,2.08343 -2.90951,4.28395 -6.26327,2.76038 z m 1.92761,-6.31867 c 1.82626,-2.36685 1.87009,-2.71289 0.34369,-2.71289 -2.11953,0 -3.81211,2.58207 -3.02948,4.62156 0.30041,0.78285 0.98369,0.29727 2.68579,-1.90867 z m 10.39027,6.46685 c -3.74575,-1.19412 -4.79277,-7.1993 -1.76324,-10.11302 2.21019,-2.1257 5.05805,-2.21291 7.75934,-0.23762 0.55285,0.40427 0.61919,0.39019 1.22096,-0.25914 0.34999,-0.37764 0.71199,-0.68663 0.80444,-0.68663 0.0925,0 0.1681,2.55985 0.1681,5.68854 0,3.1287 -0.0652,5.68855 -0.14498,5.68855 -0.0797,0 -0.42941,-0.32743 -0.77704,-0.72761 -0.58422,-0.67253 -0.67839,-0.69878 -1.24408,-0.34674 -2.17241,1.35189 -3.96977,1.64839 -6.0235,0.99367 z m 4.08243,-2.71776 c 0.7765,-0.50879 1.72592,-2.17282 1.72592,-3.025 0,-2.5196 -3.48678,-4.38432 -5.39356,-2.88445 -3.51153,2.76217 -0.0474,8.34366 3.66764,5.90945 z m 9.81879,2.52534 c -3.60727,-1.80003 -4.47195,-7.004 -1.63238,-9.82424 1.60068,-1.58977 4.47553,-2.26917 5.97493,-1.41204 1.44615,0.8267 1.5875,0.63824 1.5875,-2.11667 v -2.51354 h 1.19062 1.19063 v 8.1193 8.11929 l -0.80337,-0.76968 c -0.67892,-0.65045 -0.87362,-0.71872 -1.25678,-0.44072 -1.95625,1.41935 -4.42363,1.75023 -6.25115,0.8383 z m 4.79729,-3.0121 c 1.52264,-1.64901 1.4845,-3.61168 -0.0992,-5.10532 -2.15859,-2.03582 -5.38377,-0.60345 -5.38161,2.39008 0.002,3.42955 3.30881,5.06752 5.48084,2.71524 z"
         id="path855" /><path
         style="fill:#c20b26;stroke-width:0.264583"
         d="m 33.87321,205.95218 c -0.922861,-0.10596 -2.446714,-1.59857 -2.654518,-2.60009 -0.08614,-0.41516 -0.132128,-7.95811 -0.102195,-16.76212 0.06007,-17.66932 -0.03846,-16.66341 1.738119,-17.74382 1.289237,-0.78403 25.317856,-0.7821 26.25949,0.002 l 0.631814,0.52618 -12.197497,0.009 c -13.009175,0.009 -13.495885,0.0531 -14.591242,1.31028 -0.661271,0.75897 -0.806455,2.44426 -0.305319,3.54413 0.673563,1.47831 0.937022,1.50439 15.196785,1.50439 h 13.087898 v 13.89062 c 0,9.08403 -0.09155,13.89063 -0.264583,13.89063 -0.145521,0 -0.264583,0.22399 -0.264583,0.49776 0,0.27377 -0.399958,0.80283 -0.888794,1.17568 l -0.888794,0.67792 -12.009643,0.0811 c -6.605305,0.0446 -12.341427,0.043 -12.746938,-0.004 z m 20.457102,-15.8004 c 0.404639,-0.48756 0.37195,-7.34913 -0.03867,-8.11638 -0.240929,-0.45018 -0.763805,-0.47577 -8.38155,-0.41018 l -8.124591,0.0699 -0.07333,4.08994 c -0.04033,2.24946 -0.01431,4.24376 0.05784,4.43177 0.212941,0.55491 16.097556,0.49247 16.5603,-0.0651 z"
         id="path853" /><path
         style="fill:#b3112a;stroke-width:0.264583"
         d="m 33.543889,206.1527 c -1.033848,-0.30072 -1.938863,-1.15276 -2.402126,-2.2615 -0.462102,-1.10596 -0.545238,-31.60036 -0.09061,-33.23734 0.262572,-0.94545 1.92358,-2.5889 2.268227,-2.24426 0.08232,0.0823 -0.193018,0.3269 -0.61187,0.54349 -1.578897,0.81648 -1.536586,0.31334 -1.536586,18.27232 0,15.45057 0.0287,16.47247 0.481405,17.1394 1.121119,1.65167 0.610783,1.59583 14.433783,1.57924 7.503814,-0.009 12.387415,0.0795 12.072312,0.21867 -0.689057,0.30445 -23.565458,0.29513 -24.614531,-0.01 z m 4.226123,-15.93582 c -0.07215,-0.18801 -0.09818,-2.18231 -0.05784,-4.43177 l 0.07333,-4.08994 8.124591,-0.0699 c 7.617745,-0.0656 8.140621,-0.04 8.38155,0.41018 0.410617,0.76725 0.443306,7.62882 0.03867,8.11638 -0.462744,0.55757 -16.347359,0.62001 -16.5603,0.0651 z m 16.126767,-0.34126 c 0.452145,-1.17827 0.166716,-7.4971 -0.351173,-7.77426 -0.765564,-0.40972 -14.897236,-0.36947 -15.310311,0.0436 -0.34148,0.34148 -0.470713,7.64317 -0.141111,7.97277 0.427063,0.42707 15.635221,0.19405 15.802595,-0.24212 z M 34.304543,175.53956 c -0.277015,-0.176 13.829895,-0.16789 23.060127,0.0132 2.037292,0.04 -2.248958,0.0971 -9.525,0.12692 -7.276041,0.0298 -13.366849,-0.0333 -13.535127,-0.14016 z m -1.942675,-3.9444 c 7.07e-4,-0.47808 1.240713,-1.60186 2.08968,-1.89382 0.633876,-0.21798 4.500155,-0.31189 13.096875,-0.31809 12.164628,-0.009 12.195815,-0.0102 11.572874,-0.52917 -0.343545,-0.2862 -0.547714,-0.52036 -0.453712,-0.52036 0.319005,0 1.47521,0.85332 1.47521,1.08876 0,0.13242 -5.316674,0.23479 -12.236979,0.23563 -13.172819,0.002 -13.777842,0.0565 -14.865806,1.34948 -0.373156,0.44347 -0.678319,0.70788 -0.678142,0.58757 z m 2.116344,-3.29276 c -0.509323,-0.09 4.669896,-0.15368 11.509375,-0.14154 6.839479,0.0121 11.066198,0.0553 9.392708,0.096 -6.956448,0.16898 -20.042088,0.19751 -20.902083,0.0456 z"
         id="path851" /></g></g></svg>
